# File created by Blade
# Date/Time:  Thu Jan 22 16:00:44 2015
# Frame Rate: 120.000 fps
#------------------------------------------------------
:FULLY-SPECIFIED
:DEGREES
2493
root 2.217557 37.290793 6.622520 1.920414 -7.155068 1.909359
RightUpLeg 6.613435 1.488893 -4.347270
RightLeg -6.497544 -0.000000 0.000000
RightFoot -7.587556 -6.945005 18.038986
RightToeBase 13.872028 -0.000000 -0.000000
LeftUpLeg 5.535814 8.762897 3.543832
LeftLeg -3.229233 -0.000000 0.000000
LeftFoot -5.036582 7.817143 -20.063796
LeftToeBase 8.196975 -0.000000 -0.000000
Spine 0.683323 -4.374571 -0.836668
RightShoulder -0.560797 -9.297752 -30.300466
RightArm 3.416538 29.729316 28.723735
RightForeArm 2.385397 -0.000000 12.366917
RightHand 4.295199 -0.000000 8.057809
RightHandThumb1 -24.326973 -0.000000 -32.862282
LeftShoulder -22.969714 28.065478 12.756058
LeftArm 41.181335 -49.532659 -49.305022
LeftForeArm 37.098931 -0.000000 4.300832
LeftHand -15.299820 -0.000000 -1.068705
LeftHandThumb1 -26.253704 0.000000 33.147579
Head 12.871154 12.744775 1.761566
2494
root 2.223438 37.291463 6.620085 1.930125 -7.132898 1.917830
RightUpLeg 6.602947 1.449670 -4.360169
RightLeg -6.500707 -0.000000 0.000000
RightFoot -7.576206 -6.962695 18.005608
RightToeBase 13.863314 -0.000000 -0.000000
LeftUpLeg 5.520154 8.725311 3.524129
LeftLeg -3.237075 -0.000000 0.000000
LeftFoot -5.029419 7.831590 -20.060289
LeftToeBase 8.202805 -0.000000 -0.000000
Spine 0.663099 -4.366322 -0.838696
RightShoulder -0.562111 -9.320792 -30.292335
RightArm 3.422790 29.730070 28.719453
RightForeArm 2.378457 0.000000 12.346537
RightHand 4.191014 -0.000000 8.302011
RightHandThumb1 -24.326973 -0.000000 -32.862282
LeftShoulder -22.931580 28.042084 12.760506
LeftArm 41.094931 -49.515306 -49.272846
LeftForeArm 37.064661 0.000000 4.315191
LeftHand -15.388491 0.000000 -1.259606
LeftHandThumb1 -26.253704 0.000000 33.147579
Head 12.818072 12.728559 1.729503
2495
root 2.228292 37.292428 6.618321 1.939996 -7.127175 1.922281
RightUpLeg 6.592768 1.451806 -4.372907
RightLeg -6.507211 -0.000000 0.000000
RightFoot -7.562929 -6.957385 18.055684
RightToeBase 13.851573 -0.000000 -0.000000
LeftUpLeg 5.508358 8.718451 3.511535
LeftLeg -3.241013 -0.000000 0.000000
LeftFoot -5.015222 7.825996 -20.041554
LeftToeBase 8.197379 -0.000000 -0.000000
Spine 0.640049 -4.336743 -0.842989
RightShoulder -0.566753 -9.319302 -30.276026
RightArm 3.408168 29.665089 28.703257
RightForeArm 2.373177 0.000000 12.331391
RightHand 4.091597 -0.000000 8.507570
RightHandThumb1 -24.326973 -0.000000 -32.862282
LeftShoulder -22.875510 27.996764 12.771442
LeftArm 40.958183 -49.475649 -49.166535
LeftForeArm 37.072154 -0.000000 4.279582
LeftHand -15.332584 0.000000 -1.115288
LeftHandThumb1 -26.253704 0.000000 33.147579
Head 12.783202 12.690475 1.722906
2496
root 2.231688 37.293049 6.617015 1.944406 -7.111120 1.913234
RightUpLeg 6.590467 1.446656 -4.368666
RightLeg -6.506999 -0.000000 0.000000
RightFoot -7.560514 -6.967669 18.052146
RightToeBase 13.852880 -0.000000 -0.000000
LeftUpLeg 5.499866 8.694859 3.514946
LeftLeg -3.237896 -0.000000 0.000000
LeftFoot -4.985700 7.806765 -20.078431
LeftToeBase 7.989812 -0.000000 -0.000000
Spine 0.627440 -4.329114 -0.836444
RightShoulder -0.566997 -9.353584 -30.263750
RightArm 3.427987 29.642864 28.715144
RightForeArm 2.396569 -0.000000 12.309410
RightHand 4.023937 0.000000 8.753119
RightHandThumb1 -24.326973 -0.000000 -32.862282
LeftShoulder -22.870383 27.995117 12.768152
LeftArm 40.961502 -49.488911 -49.219278
LeftForeArm 37.181563 -0.000000 4.278157
LeftHand -15.192239 -0.000000 -1.098456
LeftHandThumb1 -26.253704 0.000000 33.147579
Head 12.743643 12.665143 1.711706
2497
root 2.237065 37.293239 6.613503 1.954965 -7.114165 1.917885
RightUpLeg 6.571158 1.421932 -4.381274
RightLeg -6.506414 -0.000000 0.000000
RightFoot -7.589828 -6.930152 18.111359
RightToeBase 14.000252 -0.000000 -0.000000
LeftUpLeg 5.483723 8.683978 3.499692
LeftLeg -3.241072 -0.000000 0.000000
LeftFoot -5.024758 7.837507 -20.060710
LeftToeBase 8.183336 -0.000000 -0.000000
Spine 0.611906 -4.282004 -0.847770
RightShoulder -0.586646 -9.339381 -30.260670
RightArm 3.418547 29.594577 28.743416
RightForeArm 2.361649 -0.000000 12.293560
RightHand 4.025489 0.000000 8.991630
RightHandThumb1 -24.326973 -0.000000 -32.862282
LeftShoulder -22.839145 27.982910 12.794964
LeftArm 40.954670 -49.483744 -49.288173
LeftForeArm 37.311151 0.000000 4.301149
LeftHand -15.196715 -0.000000 -1.271732
LeftHandThumb1 -26.253704 0.000000 33.147579
Head 12.695732 12.612266 1.697568
2498
root 2.240978 37.293508 6.612865 1.938571 -7.107326 1.913824
RightUpLeg 6.588111 1.402293 -4.381950
RightLeg -6.507184 -0.000000 0.000000
RightFoot -7.583375 -6.925282 18.109275
RightToeBase 13.964248 -0.000000 -0.000000
LeftUpLeg 5.499763 8.661731 3.500862
LeftLeg -3.244009 -0.000000 0.000000
LeftFoot -5.035289 7.844936 -20.062065
LeftToeBase 8.227155 -0.000000 -0.000000
Spine 0.624212 -4.259694 -0.849061
RightShoulder -0.601374 -9.349501 -30.247109
RightArm 3.456526 29.580769 28.769554
RightForeArm 2.341857 -0.000000 12.258755
RightHand 3.966979 -0.000000 9.147515
RightHandThumb1 -24.326973 -0.000000 -32.862282
LeftShoulder -22.825078 27.970553 12.789565
LeftArm 40.938655 -49.478506 -49.310087
LeftForeArm 37.441038 -0.000000 4.302911
LeftHand -15.152403 -0.000000 -1.340284
LeftHandThumb1 -26.253704 0.000000 33.147579
Head 12.665000 12.606405 1.682501
2499
root 2.245498 37.293766 6.610133 1.941173 -7.112996 1.911776
RightUpLeg 6.575449 1.405265 -4.386390
RightLeg -6.499039 -0.000000 0.000000
RightFoot -7.544682 -6.945644 18.049704
RightToeBase 13.834436 -0.000000 -0.000000
LeftUpLeg 5.492908 8.640423 3.494810
LeftLeg -3.241318 -0.000000 0.000000
LeftFoot -5.048020 7.861339 -20.079873
LeftToeBase 8.206043 -0.000000 -0.000000
Spine 0.615669 -4.219483 -0.855161
RightShoulder -0.615956 -9.363591 -30.219762
RightArm 3.485889 29.581173 28.783580
RightForeArm 2.297313 -0.000000 12.219010
RightHand 3.917298 0.000000 9.360987
RightHandThumb1 -24.326973 -0.000000 -32.862282
LeftShoulder -22.808868 27.944597 12.787809
LeftArm 40.894382 -49.432743 -49.284079
LeftForeArm 37.577231 -0.000000 4.307569
LeftHand -15.084858 0.000000 -1.438046
LeftHandThumb1 -26.253704 0.000000 33.147579
Head 12.636557 12.581947 1.671626
2500
root 2.248936 37.294058 6.607644 1.945000 -7.117051 1.901639
RightUpLeg 6.569861 1.396861 -4.380923
RightLeg -6.502929 -0.000000 0.000000
RightFoot -7.532918 -6.943094 18.042505
RightToeBase 13.881818 -0.000000 -0.000000
LeftUpLeg 5.490349 8.625630 3.498031
LeftLeg -3.247800 -0.000000 0.000000
LeftFoot -5.052573 7.873682 -20.061975
LeftToeBase 8.188179 -0.000000 -0.000000
Spine 0.604448 -4.188440 -0.852087
RightShoulder -0.617480 -9.339565 -30.204413
RightArm 3.482195 29.558387 28.806531
RightForeArm 2.238843 -0.000000 12.189878
RightHand 3.901189 -0.000000 9.500652
RightHandThumb1 -24.326973 -0.000000 -32.862282
LeftShoulder -22.786812 27.919678 12.788300
LeftArm 40.819415 -49.374698 -49.233898
LeftForeArm 37.701519 0.000000 4.308347
LeftHand -15.067872 0.000000 -1.690866
LeftHandThumb1 -26.253704 0.000000 33.147579
Head 12.622099 12.579960 1.665665
2501
root 2.253665 37.294520 6.605640 1.940344 -7.123552 1.901021
RightUpLeg 6.568104 1.399806 -4.388435
RightLeg -6.500753 -0.000000 0.000000
RightFoot -7.521666 -6.939577 18.046424
RightToeBase 13.858730 -0.000000 -0.000000
LeftUpLeg 5.492422 8.586677 3.489153
LeftLeg -3.245008 -0.000000 0.000000
LeftFoot -5.043772 7.905673 -19.994781
LeftToeBase 8.125857 -0.000000 -0.000000
Spine 0.598587 -4.165776 -0.859290
RightShoulder -0.613988 -9.331904 -30.171111
RightArm 3.509119 29.585688 28.819089
RightForeArm 2.171243 -0.000000 12.156324
RightHand 3.855125 -0.000000 9.606293
RightHandThumb1 -24.326973 -0.000000 -32.862282
LeftShoulder -22.763617 27.875486 12.789657
LeftArm 40.693400 -49.294403 -49.130034
LeftForeArm 37.876264 0.000000 4.309245
LeftHand -15.190483 -0.000000 -1.755816
LeftHandThumb1 -26.253704 0.000000 33.147579
Head 12.612289 12.544362 1.625182
2502
root 2.259179 37.294583 6.602734 1.948380 -7.137403 1.897867
RightUpLeg 6.544106 1.376639 -4.394296
RightLeg -6.487827 -0.000000 0.000000
RightFoot -7.520686 -6.914810 18.066020
RightToeBase 13.880380 -0.000000 -0.000000
LeftUpLeg 5.477622 8.585381 3.483725
LeftLeg -3.236122 -0.000000 0.000000
LeftFoot -5.081206 7.908755 -20.072472
LeftToeBase 8.193725 -0.000000 -0.000000
Spine 0.581793 -4.134081 -0.856330
RightShoulder -0.617279 -9.318095 -30.155238
RightArm 3.544237 29.579709 28.853426
RightForeArm 2.191967 -0.000000 12.117291
RightHand 3.782177 -0.000000 9.583503
RightHandThumb1 -24.326973 -0.000000 -32.862282
LeftShoulder -22.745748 27.853039 12.776719
LeftArm 40.573941 -49.218507 -49.024687
LeftForeArm 38.020491 0.000000 4.300249
LeftHand -15.040101 -0.000000 -1.901554
LeftHandThumb1 -26.253704 0.000000 33.147579
Head 12.597260 12.527204 1.578675
2503
root 2.264489 37.294326 6.601098 1.943854 -7.140156 1.895822
RightUpLeg 6.544963 1.365599 -4.409472
RightLeg -6.505826 -0.000000 0.000000
RightFoot -7.507716 -6.853998 18.083619
RightToeBase 13.994609 -0.000000 -0.000000
LeftUpLeg 5.482082 8.542082 3.475781
LeftLeg -3.242603 -0.000000 0.000000
LeftFoot -5.106325 7.950031 -20.077142
LeftToeBase 8.245871 -0.000000 -0.000000
Spine 0.576053 -4.113320 -0.864292
RightShoulder -0.619798 -9.309362 -30.132655
RightArm 3.563624 29.613917 28.892311
RightForeArm 2.168164 -0.000000 12.124231
RightHand 3.700634 0.000000 9.796179
RightHandThumb1 -24.326973 -0.000000 -32.862282
LeftShoulder -22.728807 27.832154 12.784465
LeftArm 40.488349 -49.155299 -48.970664
LeftForeArm 38.171984 -0.000000 4.295710
LeftHand -14.948080 -0.000000 -2.225197
LeftHandThumb1 -26.253704 0.000000 33.147579
Head 12.590146 12.484640 1.537848
2504
root 2.268291 37.293808 6.599330 1.940124 -7.148663 1.888312
RightUpLeg 6.538390 1.346980 -4.400288
RightLeg -6.477048 -0.000000 0.000000
RightFoot -7.502611 -6.881574 18.042540
RightToeBase 13.851708 -0.000000 -0.000000
LeftUpLeg 5.485897 8.534764 3.475793
LeftLeg -3.241931 -0.000000 0.000000
LeftFoot -5.102176 7.962479 -20.018944
LeftToeBase 8.189788 -0.000000 -0.000000
Spine 0.572850 -4.095691 -0.871670
RightShoulder -0.621186 -9.285719 -30.115592
RightArm 3.578895 29.644280 28.947210
RightForeArm 2.109249 -0.000000 12.139269
RightHand 3.703168 -0.000000 9.881114
RightHandThumb1 -24.326973 -0.000000 -32.862282
LeftShoulder -22.742968 27.818508 12.792600
LeftArm 40.478170 -49.121826 -49.010866
LeftForeArm 38.348232 0.000000 4.289230
LeftHand -14.844458 0.000000 -2.422011
LeftHandThumb1 -26.253704 0.000000 33.147579
Head 12.583368 12.458652 1.509560
